<svg xmlns="http://www.w3.org/2000/svg" xmlns:xlink="http://www.w3.org/1999/xlink" version="1.1" width="858.89" height="158.74" viewBox="0 0 858.89 158.74">
<defs>
<clipPath id="clip_0">
<path transform="matrix(1,0,0,-1,0,158.74)" d="M8.078 8.751H125.392009V149.528H8.078Z"/>
</clipPath>
<path id="font_1_14" d="M.8659973 0V.6660156H.6649933V.2599945L.62098696 .30699159 .272995 .6660156H.08699036V0H.28799439V.40600587L.33099366 .3600006 .68499758 0H.8659973Z"/>
<path id="font_1_9" d="M.29899598 0V.6660156H.08699036V0H.29899598Z"/>
<path id="font_1_23" d="M.9189911 .6660156H.71598818L.47698976 .20300293 .23999024 .6660156H.0069885256L.36099244 0H.5549927L.9189911 .6660156Z"/>
<path id="font_1_149" d="M.4149933 .6660156H.33999635L.005996704 0H.20098877L.269989 .13970948H.6029968L.66999819 0H.897995L.55799868 .6660156H.48199464C.5359955 .67900088 .56799319 .7229614 .56799319 .77093508 .56799319 .8278961 .522995 .87890627 .44898988 .87890627 .375 .87890627 .32998658 .8278961 .32998658 .77093508 .32998658 .7229614 .36099244 .67900088 .4149933 .6660156M.5019989 .77093508C.5019989 .7399597 .48298646 .7179718 .44898988 .7179718 .4149933 .7179718 .3959961 .7399597 .3959961 .77093508 .3959961 .8019104 .4149933 .8238983 .44898988 .8238983 .48298646 .8238983 .5019989 .8019104 .5019989 .77093508M.548996 .26171876H.32598878L.43899537 .49287416 .548996 .26171876Z"/>
</defs>
<g clip-path="url(#clip_0)">
<path transform="matrix(1,0,0,-1,125.2142,36.783006)" d="M0 0C-11.249 4.591-22.93 7.801-34.782 9.632-37.755 19.913-47.253 27.452-58.479 27.452-69.701 27.452-79.195 19.918-82.172 9.642-94.025 7.817-105.706 4.613-116.956 .027-117.985-20.879-114.612-42.325-106.286-62.983-114.157-72.66-113.589-86.962-104.58-95.971-97.35-103.201-86.711-104.994-77.789-101.352-71.837-106.056-65.344-109.99-58.479-113.087-51.614-109.99-45.121-106.056-39.168-101.352-30.246-104.994-19.607-103.201-12.377-95.971-3.368-86.962-2.8-72.66-10.671-62.983-2.349-42.334 1.025-20.898 0 0" fill="#ffffff"/>
<path transform="matrix(1,0,0,-1,112.3855,69.32191)" d="M0 0C1.565 8.373 2.332 16.777 2.342 25.117-11.036 29.839-24.972 32.524-38.984 33.172V0Z" fill="#d5333e"/>
<path transform="matrix(1,0,0,-1,73.4013,85.319408)" d="M0 0V-49.613C13.264-40.554 24.134-27.664 30.74-11.716 32.346-7.838 33.762-3.93 34.994 0Z" fill="#d5333e"/>
<path transform="matrix(1,0,0,-1,110.9515,130.8683)" d="M0 0C-6.801-6.801-16.985-8.209-25.186-4.223-31.023-9.066-37.424-13.136-44.216-16.361-51.008-13.136-57.409-9.066-63.246-4.223-71.447-8.209-81.631-6.801-88.432 0-96.838 8.406-97.004 21.978-88.933 30.59-88.958 30.651-88.984 30.711-89.009 30.772-97.349 50.908-100.87 71.837-100.104 92.277-88.982 96.665-77.446 99.69-65.754 101.352-63.68 111.341-54.811 118.871-44.216 118.871-33.618 118.871-24.746 111.336-22.676 101.342-10.983 99.675 .552 96.645 11.673 92.251 12.436 71.819 8.914 50.899 .577 30.772 .552 30.711 .526 30.651 .501 30.59 8.573 21.978 8.406 8.406 0 0M14.263 94.085C3.014 98.677-8.667 101.887-20.519 103.717-23.493 113.998-32.99 121.537-44.216 121.537-55.438 121.537-64.933 114.003-67.909 103.728-79.762 101.903-91.443 98.698-102.693 94.112-103.722 73.206-100.349 51.76-92.023 31.103-99.895 21.426-99.326 7.124-90.317-1.885-83.087-9.115-72.448-10.909-63.527-7.267-57.574-11.97-51.081-15.905-44.216-19.002-37.351-15.905-30.858-11.97-24.905-7.267-15.984-10.909-5.345-9.115 1.885-1.885 10.894 7.124 11.463 21.426 3.591 31.103 11.914 51.751 15.287 73.188 14.263 94.085" fill="#5b8ab0"/>
<path transform="matrix(1,0,0,-1,43.7393,76.987308)" d="M0 0V-2.666H-4.999V-5.666H-8.998V4.999H1.666V2H-4.999V0Z" fill="#5b8ab0"/>
<path transform="matrix(1,0,0,-1,97.064,76.987308)" d="M0 0V-2.666H-4.999V-5.666H-8.998V4.999H1.667V2H-4.999V0Z" fill="#5b8ab0"/>
<path transform="matrix(1,0,0,-1,62.1071,33.400308)" d="M0 0C.292 2.296 2.253 4.072 4.628 4.072 7.005 4.072 8.967 2.295 9.257-.002 12.639-.109 16.018-.332 19.387-.672 19.418-.474 19.331-.26 19.128-.152L14.565 2.269C14.327 2.396 14.232 2.688 14.35 2.93L16.618 7.571C16.794 7.931 16.496 8.342 16.099 8.285L10.985 7.563C10.718 7.525 10.469 7.706 10.422 7.971L9.529 13.059C9.46 13.454 8.977 13.611 8.689 13.332L4.977 9.741C4.783 9.553 4.475 9.553 4.281 9.741L.568 13.332C.28 13.611-.202 13.454-.271 13.059L-1.164 7.971C-1.211 7.706-1.46 7.525-1.727 7.563L-6.841 8.285C-7.238 8.342-7.536 7.931-7.36 7.571L-5.092 2.93C-4.974 2.688-5.069 2.396-5.307 2.269L-9.87-.152C-10.071-.259-10.158-.469-10.13-.665-6.761-.327-3.382-.105 0 0" fill="#5b8ab0"/>
<path transform="matrix(1,0,0,-1,39.7258,119.679409)" d="M0 0C-1.663-.628-3.613-.273-4.951 1.066-6.649 2.763-6.765 5.443-5.3 7.275-7.17 10.144-8.888 13.15-10.438 16.287-10.512 16.188-10.552 16.06-10.532 15.919L-9.809 10.804C-9.771 10.537-9.952 10.289-10.217 10.242L-15.305 9.349C-15.7 9.28-15.857 8.797-15.578 8.509L-11.987 4.796C-11.799 4.602-11.799 4.295-11.987 4.101L-15.578 .388C-15.857 .1-15.7-.382-15.305-.452L-10.217-1.345C-9.952-1.391-9.771-1.64-9.809-1.907L-10.532-7.022C-10.588-7.419-10.177-7.717-9.817-7.541L-5.176-5.273C-4.934-5.154-4.642-5.249-4.515-5.488L-2.094-10.05C-1.906-10.404-1.399-10.404-1.211-10.05L1.211-5.488C1.337-5.249 1.63-5.154 1.872-5.273L6.513-7.541C6.648-7.607 6.79-7.606 6.912-7.558 4.475-5.191 2.166-2.669 0 0" fill="#5b8ab0"/>
<path transform="matrix(1,0,0,-1,109.3232,111.17041)" d="M0 0C.279 .288 .122 .771-.273 .84L-5.361 1.733C-5.626 1.78-5.807 2.028-5.769 2.295L-5.046 7.41C-5.026 7.551-5.065 7.679-5.14 7.778-6.69 4.641-8.408 1.635-10.278-1.234-8.813-3.066-8.929-5.746-10.626-7.443-11.965-8.782-13.915-9.137-15.578-8.509-17.743-11.178-20.053-13.7-22.49-16.067-22.368-16.115-22.226-16.116-22.09-16.05L-17.45-13.782C-17.207-13.663-16.915-13.758-16.789-13.996L-14.367-18.559C-14.179-18.913-13.672-18.913-13.484-18.559L-11.062-13.996C-10.936-13.758-10.644-13.663-10.402-13.782L-5.761-16.05C-5.401-16.226-4.99-15.927-5.046-15.531L-5.769-10.416C-5.807-10.149-5.626-9.9-5.361-9.854L-.273-8.961C.122-8.891 .279-8.409 0-8.121L-3.591-4.408C-3.779-4.214-3.779-3.907-3.591-3.713Z" fill="#5b8ab0"/>
<path transform="matrix(1,0,0,-1,60.0701,69.32191)" d="M0 0V33.175C-14.012 32.533-27.947 29.855-41.326 25.14-41.318 16.793-40.55 8.381-38.984 0Z" fill="#d5333e"/>
<path transform="matrix(1,0,0,-1,25.0754,85.319408)" d="M0 0C1.232-3.93 2.649-7.838 4.255-11.716 10.861-27.664 21.73-40.554 34.995-49.613V0Z" fill="#d5333e"/>
<path transform="matrix(1,0,0,-1,66.7355,79.6536)" d="M0 0H-2.666V4.666H0C2.194 4.666 3.333 3.904 3.333 2.333 3.333 .762 2.194 0 0 0M-1.187 7.665H-6.666V-2.999H-1.187C1.96-2.999 7.332-3 7.332 2.333 7.332 7.666 1.96 7.665-1.187 7.665" fill="#5b8ab0"/>
</g>
<use data-text="N" xlink:href="#font_1_14" transform="matrix(44.34,0,0,-44.34,180.81,93.87)" fill="#5687b1"/>
<use data-text="I" xlink:href="#font_1_9" transform="matrix(44.34,0,0,-44.34,223.06603,93.87)" fill="#5687b1"/>
<use data-text="V" xlink:href="#font_1_23" transform="matrix(44.34,0,0,-44.34,240.18126,93.87)" fill="#5687b1"/>
<use data-text="&#x00c5;" xlink:href="#font_1_149" transform="matrix(44.34,0,0,-44.34,281.1071,93.87)" fill="#5687b1"/>
</svg>
